# xmcd
#
# Track frame offsets:
# 150
# 25842
# 60350
# 85097
# 112907
# 144927
# 171402
# 190150
# 216027
# 242297
#
# Disc length: 3436 seconds
#
#
# Revision: 0
# Processed by: cddbd v1.5PL3 Copyright (c) Steve Scherf et al.
# Submitted via: FreeRIP 2.60 
#
DISCID=760d6a0a
DTITLE=Blue Train - Never You Mind
DYEAR=1900
DGENRE=Blues
TTITLE0=Electric Opposition
TTITLE1=Outer Zone
TTITLE2=Nasty McFly
TTITLE3=Wrong Number
TTITLE4=Never You Mind
TTITLE5=Second To Noe
TTITLE6=Nine
TTITLE7=Lo Bat
TTITLE8=Time Aprt (for carlene)
TTITLE9=Tip Toe
EXTD=
EXTT0=
EXTT1=
EXTT2=
EXTT3=
EXTT4=
EXTT5=
EXTT6=
EXTT7=
EXTT8=
EXTT9=
PLAYORDER=
